<svg width="146" height="24" viewBox="0 0 146 24" fill="none" xmlns="http://www.w3.org/2000/svg">
<path d="M29.4 2.15L23.22 23H19.35L14.97 7.22L10.32 23L6.48 23.03L0.57 2.15H4.2L8.52 19.13L13.2 2.15H17.04L21.39 19.04L25.74 2.15H29.4ZM47.3707 14.33C47.3707 14.95 47.3307 15.51 47.2507 16.01H34.6207C34.7207 17.33 35.2107 18.39 36.0907 19.19C36.9707 19.99 38.0507 20.39 39.3307 20.39C41.1707 20.39 42.4707 19.62 43.2307 18.08H46.9207C46.4207 19.6 45.5107 20.85 44.1907 21.83C42.8907 22.79 41.2707 23.27 39.3307 23.27C37.7507 23.27 36.3307 22.92 35.0707 22.22C33.8307 21.5 32.8507 20.5 32.1307 19.22C31.4307 17.92 31.0807 16.42 31.0807 14.72C31.0807 13.02 31.4207 11.53 32.1007 10.25C32.8007 8.95 33.7707 7.95 35.0107 7.25C36.2707 6.55 37.7107 6.2 39.3307 6.2C40.8907 6.2 42.2807 6.54 43.5007 7.22C44.7207 7.9 45.6707 8.86 46.3507 10.1C47.0307 11.32 47.3707 12.73 47.3707 14.33ZM43.8007 13.25C43.7807 11.99 43.3307 10.98 42.4507 10.22C41.5707 9.46 40.4807 9.08 39.1807 9.08C38.0007 9.08 36.9907 9.46 36.1507 10.22C35.3107 10.96 34.8107 11.97 34.6507 13.25H43.8007ZM54.1563 0.8V23H50.7363V0.8H54.1563ZM57.5065 14.66C57.5065 13 57.8465 11.53 58.5265 10.25C59.2265 8.97 60.1665 7.98 61.3465 7.28C62.5465 6.56 63.8765 6.2 65.3365 6.2C66.4165 6.2 67.4765 6.44 68.5165 6.92C69.5765 7.38 70.4165 8 71.0365 8.78V0.8H74.4865V23H71.0365V20.51C70.4765 21.31 69.6965 21.97 68.6965 22.49C67.7165 23.01 66.5865 23.27 65.3065 23.27C63.8665 23.27 62.5465 22.91 61.3465 22.19C60.1665 21.45 59.2265 20.43 58.5265 19.13C57.8465 17.81 57.5065 16.32 57.5065 14.66ZM71.0365 14.72C71.0365 13.58 70.7965 12.59 70.3165 11.75C69.8565 10.91 69.2465 10.27 68.4865 9.83C67.7265 9.39 66.9065 9.17 66.0265 9.17C65.1465 9.17 64.3265 9.39 63.5665 9.83C62.8065 10.25 62.1865 10.88 61.7065 11.72C61.2465 12.54 61.0165 13.52 61.0165 14.66C61.0165 15.8 61.2465 16.8 61.7065 17.66C62.1865 18.52 62.8065 19.18 63.5665 19.64C64.3465 20.08 65.1665 20.3 66.0265 20.3C66.9065 20.3 67.7265 20.08 68.4865 19.64C69.2465 19.2 69.8565 18.56 70.3165 17.72C70.7965 16.86 71.0365 15.86 71.0365 14.72Z" fill="#B9515C"/>
<path d="M100.939 2.15V23H97.5185V8.72L91.1585 23H88.7885L82.3985 8.72V23H78.9785V2.15H82.6685L89.9885 18.5L97.2785 2.15H100.939ZM104.294 14.66C104.294 13 104.634 11.53 105.314 10.25C106.014 8.97 106.954 7.98 108.134 7.28C109.334 6.56 110.654 6.2 112.094 6.2C113.394 6.2 114.524 6.46 115.484 6.98C116.464 7.48 117.244 8.11 117.824 8.87V6.47H121.274V23H117.824V20.54C117.244 21.32 116.454 21.97 115.454 22.49C114.454 23.01 113.314 23.27 112.034 23.27C110.614 23.27 109.314 22.91 108.134 22.19C106.954 21.45 106.014 20.43 105.314 19.13C104.634 17.81 104.294 16.32 104.294 14.66ZM117.824 14.72C117.824 13.58 117.584 12.59 117.104 11.75C116.644 10.91 116.034 10.27 115.274 9.83C114.514 9.39 113.694 9.17 112.814 9.17C111.934 9.17 111.114 9.39 110.354 9.83C109.594 10.25 108.974 10.88 108.494 11.72C108.034 12.54 107.804 13.52 107.804 14.66C107.804 15.8 108.034 16.8 108.494 17.66C108.974 18.52 109.594 19.18 110.354 19.64C111.134 20.08 111.954 20.3 112.814 20.3C113.694 20.3 114.514 20.08 115.274 19.64C116.034 19.2 116.644 18.56 117.104 17.72C117.584 16.86 117.824 15.86 117.824 14.72ZM129.186 8.87C129.686 8.03 130.346 7.38 131.166 6.92C132.006 6.44 132.996 6.2 134.136 6.2V9.74H133.266C131.926 9.74 130.906 10.08 130.206 10.76C129.526 11.44 129.186 12.62 129.186 14.3V23H125.766V6.47H129.186V8.87ZM141.269 9.26V18.41C141.269 19.03 141.409 19.48 141.689 19.76C141.989 20.02 142.489 20.15 143.189 20.15H145.289V23H142.589C141.049 23 139.869 22.64 139.049 21.92C138.229 21.2 137.819 20.03 137.819 18.41V9.26H135.869V6.47H137.819V2.36H141.269V6.47H145.289V9.26H141.269Z" fill="black"/>
</svg>
