<svg width="39" height="39" viewBox="0 0 39 39" fill="none" xmlns="http://www.w3.org/2000/svg">
<g clip-path="url(#clip0_54_3944)">
<path d="M19.4998 16.0454V23.4036H29.9943C29.5334 25.77 28.1505 27.7737 26.0765 29.1209L32.4051 33.9055C36.0924 30.5893 38.2196 25.7183 38.2196 19.932C38.2196 18.5847 38.0956 17.2891 37.8651 16.0456L19.4998 16.0454Z" fill="#3C3C43"/>
<path d="M8.57137 23.1163L7.14403 24.1809L2.09167 28.0154C5.3003 34.2163 11.8766 38.5 19.4993 38.5C24.7642 38.5 29.1782 36.8072 32.4046 33.9055L26.076 29.1209C24.3388 30.2609 22.1228 30.9519 19.4993 30.9519C14.4293 30.9519 10.1217 27.6183 8.57934 23.1273L8.57137 23.1163Z" fill="#3C3C43"/>
<path d="M2.09167 10.9845C0.762193 13.5408 0 16.4253 0 19.4998C0 22.5743 0.762193 25.4589 2.09167 28.0152C2.09167 28.0323 8.57996 23.1097 8.57996 23.1097C8.18996 21.9697 7.95944 20.7607 7.95944 19.4996C7.95944 18.2386 8.18996 17.0295 8.57996 15.8896L2.09167 10.9845Z" fill="#3C3C43"/>
<path d="M19.4997 8.06545C22.3716 8.06545 24.9242 9.0327 26.9629 10.8982L32.5469 5.45734C29.161 2.38284 24.7648 0.5 19.4997 0.5C11.877 0.5 5.3003 4.76636 2.09167 10.9846L8.57977 15.89C10.1219 11.3991 14.4297 8.06545 19.4997 8.06545Z" fill="#3C3C43"/>
</g>
<defs>
<clipPath id="clip0_54_3944">
<rect width="39" height="38" fill="white" transform="translate(0 0.5)"/>
</clipPath>
</defs>
</svg>
