<svg width="39" height="39" viewBox="0 0 39 39" fill="none" xmlns="http://www.w3.org/2000/svg">
<g clip-path="url(#clip0_54_3940)">
<path d="M19.5 3.92148C24.7102 3.92148 25.3272 3.94375 27.3762 4.03281C29.2805 4.11445 30.3088 4.42617 30.9943 4.68594C31.9008 5.02734 32.5559 5.44297 33.2338 6.10352C33.9193 6.77148 34.3383 7.40234 34.6887 8.28555C34.9553 8.95352 35.2752 9.96289 35.359 11.8109C35.4504 13.8148 35.4732 14.416 35.4732 19.4852C35.4732 24.5617 35.4504 25.1629 35.359 27.1594C35.2752 29.0148 34.9553 30.0168 34.6887 30.6848C34.3383 31.568 33.9117 32.2063 33.2338 32.8668C32.5482 33.5348 31.9008 33.943 30.9943 34.2844C30.3088 34.5441 29.2729 34.8559 27.3762 34.9375C25.3195 35.0266 24.7025 35.0488 19.5 35.0488C14.2898 35.0488 13.6729 35.0266 11.6238 34.9375C9.71953 34.8559 8.69121 34.5441 8.00566 34.2844C7.09922 33.943 6.44414 33.5273 5.76621 32.8668C5.08066 32.1988 4.66172 31.568 4.31133 30.6848C4.04473 30.0168 3.7248 29.0074 3.64102 27.1594C3.54961 25.1555 3.52676 24.5543 3.52676 19.4852C3.52676 14.4086 3.54961 13.8074 3.64102 11.8109C3.7248 9.95547 4.04473 8.95352 4.31133 8.28555C4.66172 7.40234 5.08828 6.76406 5.76621 6.10352C6.45176 5.43555 7.09922 5.02734 8.00566 4.68594C8.69121 4.42617 9.72715 4.11445 11.6238 4.03281C13.6729 3.94375 14.2898 3.92148 19.5 3.92148ZM19.5 0.5C14.2061 0.5 13.5434 0.522266 11.4639 0.611328C9.39199 0.700391 7.96758 1.02695 6.73359 1.49453C5.44629 1.98438 4.35703 2.63008 3.27539 3.69141C2.18613 4.74531 1.52344 5.80664 1.0207 7.05352C0.54082 8.26328 0.205664 9.64375 0.114258 11.6625C0.0228516 13.6961 0 14.3418 0 19.5C0 24.6582 0.0228516 25.3039 0.114258 27.3301C0.205664 29.3488 0.54082 30.7367 1.0207 31.9391C1.52344 33.1934 2.18613 34.2547 3.27539 35.3086C4.35703 36.3625 5.44629 37.0156 6.72598 37.498C7.96758 37.9656 9.38438 38.2922 11.4563 38.3812C13.5357 38.4703 14.1984 38.4926 19.4924 38.4926C24.7863 38.4926 25.449 38.4703 27.5285 38.3812C29.6004 38.2922 31.0248 37.9656 32.2588 37.498C33.5385 37.0156 34.6277 36.3625 35.7094 35.3086C36.791 34.2547 37.4613 33.1934 37.9564 31.9465C38.4363 30.7367 38.7715 29.3563 38.8629 27.3375C38.9543 25.3113 38.9771 24.6656 38.9771 19.5074C38.9771 14.3492 38.9543 13.7035 38.8629 11.6773C38.7715 9.65859 38.4363 8.2707 37.9564 7.06836C37.4766 5.80664 36.8139 4.74531 35.7246 3.69141C34.643 2.6375 33.5537 1.98438 32.274 1.50195C31.0324 1.03437 29.6156 0.707813 27.5438 0.61875C25.4566 0.522266 24.7939 0.5 19.5 0.5Z" fill="#3C3C43"/>
<path d="M19.5 9.74023C13.9699 9.74023 9.4834 14.1117 9.4834 19.5C9.4834 24.8883 13.9699 29.2598 19.5 29.2598C25.0301 29.2598 29.5166 24.8883 29.5166 19.5C29.5166 14.1117 25.0301 9.74023 19.5 9.74023ZM19.5 25.8309C15.9123 25.8309 13.0025 22.9957 13.0025 19.5C13.0025 16.0043 15.9123 13.1691 19.5 13.1691C23.0877 13.1691 25.9975 16.0043 25.9975 19.5C25.9975 22.9957 23.0877 25.8309 19.5 25.8309Z" fill="#3C3C43"/>
<path d="M32.2512 9.3542C32.2512 10.6159 31.2 11.6327 29.9127 11.6327C28.6178 11.6327 27.5742 10.6085 27.5742 9.3542C27.5742 8.09248 28.6254 7.07568 29.9127 7.07568C31.2 7.07568 32.2512 8.0999 32.2512 9.3542Z" fill="#3C3C43"/>
</g>
<defs>
<clipPath id="clip0_54_3940">
<rect width="39" height="38" fill="white" transform="translate(0 0.5)"/>
</clipPath>
</defs>
</svg>
