<svg width="38" height="39" viewBox="0 0 38 39" fill="none" xmlns="http://www.w3.org/2000/svg">
<path d="M0 39L2.67108 28.9851C1.02283 26.0536 0.15675 22.7305 0.158333 19.3229C0.163083 8.66937 8.61015 0 18.9889 0C24.0254 0.001625 28.7533 2.015 32.3094 5.668C35.864 9.321 37.821 14.1765 37.8194 19.3408C37.8147 29.9959 29.3676 38.6653 18.9889 38.6653C15.838 38.6636 12.7331 37.8528 9.98289 36.3123L0 39ZM10.4452 32.8136C13.0989 34.4305 15.6322 35.399 18.9825 35.4006C27.6085 35.4006 34.6353 28.1954 34.6401 19.3375C34.6433 10.4618 27.6497 3.26625 18.9952 3.263C10.3629 3.263 3.34083 10.4683 3.33766 19.3245C3.33608 22.9401 4.36841 25.6474 6.10215 28.4797L4.52041 34.4077L10.4452 32.8136ZM28.4746 23.9346C28.3574 23.7331 28.0439 23.6129 27.5721 23.3708C27.1019 23.1286 24.7886 21.9603 24.3564 21.7994C23.9257 21.6385 23.6122 21.5573 23.2971 22.0415C22.9836 22.5241 22.0811 23.6129 21.8072 23.9346C21.5333 24.2564 21.2578 24.297 20.7875 24.0549C20.3173 23.8127 18.8005 23.3041 17.0034 21.658C15.6053 20.3775 14.6601 18.7964 14.3861 18.3121C14.1122 17.8295 14.3576 17.5679 14.592 17.3274C14.8041 17.1112 15.0622 16.7635 15.2981 16.4808C15.5372 16.2013 15.6148 15.9998 15.7731 15.6764C15.9299 15.3546 15.8523 15.0719 15.7336 14.8298C15.6148 14.5893 14.6743 12.2119 14.2832 11.245C13.9001 10.3041 13.5121 10.4309 13.224 10.4163L12.3215 10.4C12.008 10.4 11.4981 10.5202 11.0675 11.0045C10.6368 11.4887 9.42081 12.6555 9.42081 15.0329C9.42081 17.4103 11.1071 19.7064 11.3414 20.0281C11.5773 20.3499 14.6585 25.2281 19.3784 27.3195C20.501 27.8167 21.3781 28.1141 22.0605 28.3368C23.1879 28.704 24.2139 28.652 25.0245 28.5285C25.9286 28.3904 27.808 27.3601 28.2007 26.2324C28.5934 25.103 28.5934 24.1361 28.4746 23.9346Z" fill="#3C3C43"/>
</svg>
